# xmcd CD database file
#
# Track frame offsets:
#	150
#	11768
#	22172
#	30568
#	40650
#	52003
#	61944
#	72374
#	82014
#	91092
#	101854
#	116413
#	131263
#	142497
#	157170
#	169604
#	180380
#	192392
#	202196
#	215697
#	235737
#	248800
#
# Disc length: 3478 seconds
#
# Revision: 0
# Processed by: cddbd v1.5.2PL0 Copyright (c) Steve Scherf et al.
# Submitted via: CDex 1.51
#
DISCID=410d9416
DTITLE=Russell Garcia - Russell Garcia's Wigville Band
DYEAR=1955
DGENRE=Jazz
TTITLE0=Rocky Road
TTITLE1=Floating
TTITLE2=Wigville
TTITLE3=Butter Duck
TTITLE4=Then The Lid Blew Off
TTITLE5=Mellow Bone
TTITLE6=Livin' It Up
TTITLE7=Tone Row
TTITLE8=Smogville
TTITLE9=Lonely One
TTITLE10=That Old Black Magic
TTITLE11=Ev'ry Time We Say Goodbye
TTITLE12=Trav'lin' Light
TTITLE13=Alone Together
TTITLE14=Gentleman Friend
TTITLE15=Fools Rush In
TTITLE16=I Got Plenty O' Nothin'
TTITLE17=Ev'ry Time
TTITLE18=Why Shouldn't I?
TTITLE19=It Never Entered My Mind
TTITLE20=What Is There To Say
TTITLE21=He Was Too Good To Me
EXTD=YEAR: 1955
EXTT0=
EXTT1=
EXTT2=
EXTT3=
EXTT4=
EXTT5=
EXTT6=
EXTT7=
EXTT8=
EXTT9=
EXTT10=
EXTT11=
EXTT12=
EXTT13=
EXTT14=
EXTT15=
EXTT16=
EXTT17=
EXTT18=
EXTT19=
EXTT20=
EXTT21=
PLAYORDER=
